<svg xmlns="http://www.w3.org/2000/svg" width="800" height="800" viewBox="0 0 68.969 68.969"><g data-name="Group 52" transform="translate(-365.88 -94.043)"><g fill="#dce2e9"><g data-name="Group 44"><g data-name="Group 40"><g data-name="Group 38"><path d="M381.64 142.14a2.4 2.4 0 0 1 2.4 2.4 2.4 2.4 0 0 1-2.4 2.4h-13.348a2.4 2.4 0 0 1-2.4-2.4 2.4 2.4 0 0 1 2.4-2.4z" data-name="Path 106"/><path d="M381.64 134.13a2.4 2.4 0 0 1 2.4 2.4 2.4 2.4 0 0 1-2.4 2.4h-13.348a2.4 2.4 0 0 1-2.4-2.4 2.4 2.4 0 0 1 2.4-2.4z" data-name="Path 107"/><path d="M381.64 126.12a2.4 2.4 0 0 1 2.4 2.405 2.4 2.4 0 0 1-2.4 2.4h-13.348a2.4 2.4 0 0 1-2.4-2.4 2.4 2.4 0 0 1 2.4-2.405z" data-name="Path 108"/><path d="M381.64 118.12a2.4 2.4 0 0 1 2.4 2.4 2.4 2.4 0 0 1-2.4 2.4h-13.348a2.4 2.4 0 0 1-2.4-2.4 2.4 2.4 0 0 1 2.4-2.4z" data-name="Path 109"/><path d="M381.64 110.11a2.406 2.406 0 0 1 2.4 2.4 2.4 2.4 0 0 1-2.4 2.4h-13.348a2.4 2.4 0 0 1-2.4-2.4 2.406 2.406 0 0 1 2.4-2.4z" data-name="Path 110"/></g><g data-name="Group 39" style="isolation:isolate;mix-blend-mode:multiply"><path d="M371.01 146.95h10.623a2.4 2.4 0 0 0 0-4.8H371.01z" data-name="Path 111"/><path d="M371.01 138.94h10.623a2.4 2.4 0 0 0 0-4.806H371.01z" data-name="Path 112"/><path d="M371.01 130.93h10.623a2.4 2.4 0 0 0 0-4.805H371.01z" data-name="Path 113"/><path d="M371.01 122.92h10.623a2.4 2.4 0 0 0 0-4.8H371.01z" data-name="Path 114"/><path d="M371.01 114.91h10.623a2.4 2.4 0 0 0 0-4.805H371.01z" data-name="Path 115"/></g></g><g data-name="Group 43"><g data-name="Group 41"><path d="M419.1 114.91a2.4 2.4 0 0 1-2.4-2.4 2.4 2.4 0 0 1 2.4-2.4h13.347a2.4 2.4 0 0 1 2.4 2.4 2.4 2.4 0 0 1-2.4 2.4z" data-name="Path 116"/><path d="M419.1 122.92a2.4 2.4 0 0 1-2.4-2.4 2.4 2.4 0 0 1 2.4-2.4h13.347a2.4 2.4 0 0 1 2.4 2.4 2.4 2.4 0 0 1-2.4 2.4z" data-name="Path 117"/><path d="M419.1 130.93a2.4 2.4 0 0 1-2.4-2.4 2.4 2.4 0 0 1 2.4-2.4h13.347a2.4 2.4 0 0 1 2.4 2.4 2.4 2.4 0 0 1-2.4 2.4z" data-name="Path 118"/><path d="M419.1 138.94a2.4 2.4 0 0 1-2.4-2.4 2.4 2.4 0 0 1 2.4-2.4h13.347a2.406 2.406 0 0 1 2.4 2.4 2.4 2.4 0 0 1-2.4 2.4z" data-name="Path 119"/><path d="M419.1 146.95a2.4 2.4 0 0 1-2.4-2.4 2.4 2.4 0 0 1 2.4-2.4h13.347a2.4 2.4 0 0 1 2.4 2.4 2.406 2.406 0 0 1-2.4 2.4z" data-name="Path 120"/></g><g data-name="Group 42" style="isolation:isolate;mix-blend-mode:multiply"><path d="M429.73 110.11h-10.627a2.4 2.4 0 1 0 0 4.805h10.623z" data-name="Path 121"/><path d="M429.73 118.11h-10.627a2.4 2.4 0 1 0 0 4.805h10.623z" data-name="Path 122"/><path d="M429.73 126.12h-10.627a2.4 2.4 0 1 0 0 4.805h10.623z" data-name="Path 123"/><path d="M429.727 134.13H419.1a2.4 2.4 0 1 0 0 4.8h10.623Z" data-name="Path 124"/><path d="M429.73 142.14h-10.627a2.4 2.4 0 1 0 0 4.8h10.623z" data-name="Path 125"/></g></g></g><g data-name="Group 51"><g data-name="Group 47"><g data-name="Group 45"><path d="M386.75 109.79a2.4 2.4 0 0 1-2.4 2.4 2.4 2.4 0 0 1-2.4-2.4V96.443a2.4 2.4 0 0 1 2.4-2.4 2.4 2.4 0 0 1 2.4 2.4z" data-name="Path 126"/><path d="M394.76 109.79a2.4 2.4 0 0 1-2.4 2.4 2.4 2.4 0 0 1-2.4-2.4V96.443a2.4 2.4 0 0 1 2.4-2.4 2.4 2.4 0 0 1 2.4 2.4z" data-name="Path 127"/><path d="M402.77 109.79a2.4 2.4 0 0 1-2.406 2.4 2.4 2.4 0 0 1-2.4-2.4V96.443a2.4 2.4 0 0 1 2.4-2.4 2.4 2.4 0 0 1 2.406 2.4z" data-name="Path 128"/><path d="M410.78 109.79a2.4 2.4 0 0 1-2.4 2.4 2.4 2.4 0 0 1-2.4-2.4V96.443a2.4 2.4 0 0 1 2.4-2.4 2.4 2.4 0 0 1 2.4 2.4z" data-name="Path 129"/><path d="M418.79 109.79a2.4 2.4 0 0 1-2.4 2.4 2.4 2.4 0 0 1-2.4-2.4V96.443a2.4 2.4 0 0 1 2.4-2.4 2.4 2.4 0 0 1 2.4 2.4z" data-name="Path 130"/></g><g data-name="Group 46" style="isolation:isolate;mix-blend-mode:multiply"><path d="M381.95 99.169v10.623a2.4 2.4 0 1 0 4.8 0V99.169z" data-name="Path 131"/><path d="M389.96 99.169v10.623a2.4 2.4 0 0 0 4.8 0V99.169z" data-name="Path 132"/><path d="M397.97 99.169v10.623a2.4 2.4 0 0 0 4.8 0V99.169z" data-name="Path 133"/><path d="M405.97 99.169v10.623a2.4 2.4 0 0 0 4.8 0V99.169z" data-name="Path 134"/><path d="M413.98 99.169v10.623a2.4 2.4 0 0 0 4.8 0V99.169z" data-name="Path 135"/></g></g><g data-name="Group 50"><g data-name="Group 48"><path d="M413.98 147.26a2.4 2.4 0 0 1 2.4-2.4 2.4 2.4 0 0 1 2.4 2.4v13.348a2.4 2.4 0 0 1-2.4 2.4 2.4 2.4 0 0 1-2.4-2.4z" data-name="Path 136"/><path d="M405.98 147.26a2.4 2.4 0 0 1 2.4-2.4 2.4 2.4 0 0 1 2.4 2.4v13.348a2.4 2.4 0 0 1-2.4 2.4 2.4 2.4 0 0 1-2.4-2.4z" data-name="Path 137"/><path d="M397.97 147.26a2.4 2.4 0 0 1 2.4-2.4 2.4 2.4 0 0 1 2.4 2.4v13.348a2.4 2.4 0 0 1-2.4 2.4 2.4 2.4 0 0 1-2.4-2.4z" data-name="Path 138"/><path d="M389.96 147.26a2.4 2.4 0 0 1 2.4-2.4 2.406 2.406 0 0 1 2.4 2.4v13.348a2.406 2.406 0 0 1-2.4 2.4 2.4 2.4 0 0 1-2.4-2.4z" data-name="Path 139"/><path d="M381.95 147.26a2.4 2.4 0 0 1 2.4-2.4 2.4 2.4 0 0 1 2.4 2.4v13.348a2.4 2.4 0 0 1-2.4 2.4 2.4 2.4 0 0 1-2.4-2.4z" data-name="Path 140"/></g><g data-name="Group 49" style="isolation:isolate;mix-blend-mode:multiply"><path d="M418.79 157.88v-10.623a2.4 2.4 0 0 0-4.8 0v10.623z" data-name="Path 141"/><path d="M410.78 157.88v-10.623a2.4 2.4 0 1 0-4.8 0v10.623z" data-name="Path 142"/><path d="M402.77 157.88v-10.623a2.4 2.4 0 0 0-4.8 0v10.623z" data-name="Path 143"/><path d="M394.77 157.88v-10.623a2.4 2.4 0 0 0-4.8 0v10.623z" data-name="Path 144"/><path d="M386.75 157.88v-10.623a2.4 2.4 0 1 0-4.8 0v10.623z" data-name="Path 145"/></g></g></g><path d="M380.418 100.97h39.894a7.62 7.62 0 0 1 7.62 7.62v39.891a7.62 7.62 0 0 1-7.62 7.62h-39.893a7.619 7.619 0 0 1-7.619-7.619v-39.894a7.618 7.618 0 0 1 7.618-7.618Z" data-name="Rectangle 24"/><path d="M6.349 0h32.383a6.348 6.348 0 0 1 6.348 6.348v32.38a6.35 6.35 0 0 1-6.35 6.35H6.349A6.349 6.349 0 0 1 0 38.729V6.349A6.349 6.349 0 0 1 6.349 0Z" data-name="Rectangle 25" style="isolation:isolate;mix-blend-mode:screen" transform="translate(377.82 105.99)"/></g><path fill="#8c93a1" d="M384.169 107.26h32.381a5.079 5.079 0 0 1 5.079 5.079v32.382a5.079 5.079 0 0 1-5.079 5.079h-32.38a5.08 5.08 0 0 1-5.08-5.081v-32.38a5.079 5.079 0 0 1 5.079-5.079Z" data-name="Rectangle 26"/><path fill="#dce2e9" d="M400.36 129.93a31.37 31.37 0 0 0 27.566-16.382v-4.959a7.619 7.619 0 0 0-7.619-7.619h-39.893a7.617 7.617 0 0 0-7.62 7.619v4.959a31.368 31.368 0 0 0 27.566 16.382z" data-name="Path 146" opacity=".5" style="isolation:isolate;mix-blend-mode:screen"/><rect width="22.858" height="22.857" fill="#dce2e9" data-name="Rectangle 27" rx="2.54" transform="translate(388.93 117.1)"/><path fill="#ffc52f" d="M392.957 119.01h14.815a2.116 2.116 0 0 1 2.116 2.116v14.815a2.117 2.117 0 0 1-2.117 2.117h-14.816a2.115 2.115 0 0 1-2.115-2.115v-14.816a2.117 2.117 0 0 1 2.117-2.117Z" data-name="Rectangle 28"/><path fill="#ffc52f" d="M407.77 119.01h-14.817a2.116 2.116 0 0 0-2.116 2.116v7.325a31.445 31.445 0 0 0 19.048 0v-7.325a2.116 2.116 0 0 0-2.115-2.116z" data-name="Path 147" opacity=".8" style="isolation:isolate;mix-blend-mode:screen"/></g></svg>
