<svg xmlns="http://www.w3.org/2000/svg" width="162" height="177" fill="none"><path fill="#6afebe" stroke="url(#a)" stroke-width=".3" d="M153.73 55.633c-1.436 11.071-5.954 20.853-12.684 28.55a52.178 52.178 0 0 1-5.863 5.734 51.895 51.895 0 0 1-5.225 3.829l-.094.06.031.108 16.49 56.62 3.905 13.405-16.498-16.585-14.069-48.344-.045-.154-.15.055c-7.789 2.841-16.486 3.98-25.663 3.011-8.1-.847-15.813-3.252-22.867-6.884a62.36 62.36 0 0 1-2.894-1.576l-.162-.094-13.736 44.29-.407 1.306-16.513 13.138 20.426-65.865.74-2.38.001-.003a.202.202 0 0 0 .012-.033.167.167 0 0 0 .01-.035l1.487-4.78 13.64-43.99.003-.008.01-.04v-.003c.943-4.247 3.254-7.836 6.457-10.344l.001-.002a14.09 14.09 0 0 1 1.099-.801c2.47-1.657 5.396-2.728 8.591-3.026l.136-.013V8.612c0-.952.336-1.785.899-2.406L91.002 6h.002c.706-.668 1.712-1.024 2.83-.909.269.03.54.087.79.165a4.528 4.528 0 0 1 2.024 1.297c.718.806 1.161 1.83 1.161 2.92v12.14l.106.033c8.366 2.563 14.916 9.958 16.346 18.56l.001.01.003.008 13.39 45.99.06.205.172-.126a46.306 46.306 0 0 0 7.956-7.323c5.82-6.783 9.721-15.33 10.985-24.998v-.002c.096-.784.458-1.45.981-1.916l.006-.006.026-.026c.628-.54 1.475-.826 2.413-.73h.028c.313.03.616.105.901.22h.003c1.65.618 2.775 2.364 2.544 4.12zM70.006 86.728l-.035.112 23.878 7.973-.015.149c8.503.892 16.538-.25 23.68-3.04l.128-.05-.038-.131-.89-3.07-8.79-30.18-.062-.214-.175.138c-3.658 2.895-8.51 4.384-13.821 3.828-4.151-.437-8.026-2.065-11.265-4.51a23.55 23.55 0 0 1-2.654-2.316l-.176-.178-.074.239-9.69 31.25z"/><path fill="url(#b)" d="M117.46 91.782c-7.12 2.78-15.13 3.92-23.61 3.03-8.52-.89-16.56-3.73-23.7-8.04l9.69-31.25c.83.84 1.72 1.62 2.67 2.33l-7.44 24c7.14 4.31 15.18 7.14 23.7 8.04 6.24.66 12.23.21 17.8-1.18l.89 3.07z"/><path fill="url(#c)" d="M135.73 78.872a46.139 46.139 0 0 1-7.93 7.3l-13.39-45.99c-1.44-8.66-8.03-16.1-16.45-18.68V9.472c0-1.13-.46-2.19-1.2-3.02a4.686 4.686 0 0 0-2.09-1.34c-.26-.08-.54-.14-.82-.17-1.16-.12-2.21.25-2.95.95l4.72-4.72c.75-.83 1.89-1.28 3.15-1.15 1.14.12 2.16.69 2.91 1.51.74.82 1.2 1.89 1.2 3.02v12.03c8.42 2.58 15.01 10.02 16.45 18.68l13.39 45.99a43.07 43.07 0 0 0 3.01-2.38z"/><path fill="url(#d)" d="M158.8 50.732c-1.77 13.61-8.19 25.28-17.64 33.55 6.75-7.72 11.28-17.53 12.72-28.63.24-1.83-.93-3.64-2.64-4.28-.3-.12-.62-.2-.95-.23h-.02c-.98-.1-1.87.2-2.53.77l4.79-4.79c.66-.66 1.61-1.01 2.66-.9h.02c2.2.23 3.87 2.35 3.59 4.51z"/><path fill="url(#e)" d="m155.52 159.53-4.92 4.93-4.07-13.97-16.49-56.62c1.83-1.17 3.58-2.46 5.24-3.84l20.24 69.5z"/><path fill="url(#f)" d="m70.93 95.172-12.08 38.95-4.92 4.93.42-1.35 13.68-44.11c.95.55 1.92 1.08 2.9 1.58z"/><path fill="url(#g)" d="M89.75 16.852v3.79c-3.22.3-6.17 1.38-8.66 3.05-.38.25-.75.52-1.11.81l2.57-2.7.88-.93c1.78-1.75 3.92-3.12 6.32-4.02z"/><g filter="url(#h)"><path fill="url(#i)" fill-opacity=".6" d="M128.71 58.354v98.25c0 5.62-2.31 10.45-6.04 13.68 2.72-3.13 4.35-7.28 4.35-11.98v-98.26c0-11.04-8.96-20.94-20-22.1L20 28.804c-5.42-.57-10.33 1.07-13.93 4.19 3.66-4.21 9.3-6.55 15.63-5.88l87.01 9.14c11.04 1.16 20 11.06 20 22.1z"/></g><g filter="url(#j)"><path fill="url(#k)" d="M127.02 60.043v98.26c0 4.7-1.63 8.85-4.35 11.98-3.66 4.22-9.31 6.58-15.65 5.91L20 167.053c-11.04-1.16-20-11.06-20-22.1v-98.26c0-5.63 2.33-10.46 6.07-13.7 3.6-3.12 8.51-4.76 13.93-4.19l87.02 9.14c11.04 1.16 20 11.06 20 22.1z"/><path stroke="url(#l)" stroke-width=".3" d="M122.56 170.18c-3.627 4.182-9.229 6.524-15.521 5.859l-.016.149.016-.149-87.02-9.14C9.055 165.747.153 155.911.153 144.948v-98.26c0-5.587 2.312-10.376 6.018-13.587 3.568-3.092 8.437-4.72 13.816-4.154l87.02 9.14c10.965 1.152 19.866 10.988 19.866 21.95v98.26c0 4.666-1.617 8.78-4.313 11.883z"/></g><g filter="url(#m)"><path fill="#6afebe" d="M59 101.76c0 .04 0 .09-.01.13-.02.85-.36 1.6-.9 2.13l-.03.03c-.56.55-1.33.87-2.2.87-.12 0-.24-.01-.36-.02l-43-4.52c-1.93-.21-3.5-1.94-3.5-3.87 0-.9.34-1.69.9-2.25.55-.54 1.29-.88 2.13-.89.03-.01.06-.01.09-.01.13 0 .25.01.38.02l43 4.52c1.93.2 3.5 1.93 3.5 3.86z"/></g><path fill="url(#n)" d="M59.02 101.77c0 .93-.36 1.74-.96 2.3l-2.97 2.97c.54-.53.88-1.28.9-2.13.01-.04.01-.09.01-.13 0-1.93-1.57-3.66-3.5-3.86l-43-4.52c-.13-.01-.25-.02-.38-.02-.03 0-.06 0-.09.01-.84.01-1.58.35-2.13.89l2.82-2.8c.57-.7 1.44-1.12 2.43-1.12.12 0 .25.01.37.02l43 4.52c1.93.2 3.5 1.93 3.5 3.87z"/><path fill="url(#o)" stroke="url(#p)" stroke-width=".3" d="m55.844 104.87-.004.016v.017a2.913 2.913 0 0 1-.856 2.026v.001l-.03.029v.001c-.53.521-1.262.826-2.095.826a4.17 4.17 0 0 1-.345-.019h-.002l-42.996-4.52c-1.855-.202-3.366-1.869-3.366-3.72 0-.862.325-1.613.855-2.144a2.918 2.918 0 0 1 2.027-.847h.023l.022-.007.01-.002h.033a4.347 4.347 0 0 1 .366.019h.002l42.996 4.52c1.855.192 3.366 1.858 3.366 3.71a.428.428 0 0 1-.006.094z"/><g filter="url(#q)"><path fill="#6afebe" d="M79 60.51c0 .04 0 .08-.01.12-.02.76-.3 1.44-.74 1.96l-.07.08c-.57.62-1.39.99-2.31.99-.12 0-.25-.01-.37-.02l-63-6.62c-1.93-.21-3.5-1.94-3.5-3.87 0-.99.42-1.85 1.08-2.41l.04-.04c.52-.42 1.18-.68 1.91-.69.03-.01.06-.01.09-.01.13 0 .25.01.38.02l63 6.62c1.93.2 3.5 1.93 3.5 3.87z"/></g><path fill="url(#r)" d="M79.019 60.51c0 1.03-.45 1.92-1.17 2.48l-.01.01-2.59 2.61c.44-.52.72-1.2.74-1.96.01-.04.01-.08.01-.12 0-1.94-1.57-3.67-3.5-3.87l-63-6.62c-.13-.01-.25-.02-.38-.02-.03 0-.06 0-.09.01-.73.01-1.39.27-1.91.69l2.6-2.6.04-.05c.58-.67 1.43-1.07 2.39-1.07.12 0 .25.01.37.02l63 6.62c1.93.2 3.5 1.94 3.5 3.87z"/><path fill="url(#s)" stroke="url(#t)" stroke-width=".3" d="m75.844 63.614-.004.016v.016a3 3 0 0 1-.704 1.867h-.001l-.066.076-.001.001c-.541.588-1.32.94-2.199.94-.112 0-.236-.009-.355-.019h-.002L9.516 59.89c-1.855-.202-3.366-1.868-3.366-3.72 0-.947.401-1.765 1.027-2.296l.009-.009.034-.034a2.943 2.943 0 0 1 1.812-.652h.023l.022-.007.01-.002h.033c.115 0 .222.008.343.017l.023.002h.002l62.996 6.62c1.855.192 3.366 1.858 3.366 3.72 0 .043 0 .065-.006.084z"/><g filter="url(#u)"><path fill="#6afebe" d="M79 82.19c0 .04 0 .08-.01.12-.02.76-.3 1.44-.74 1.96l-.07.08c-.57.62-1.39.99-2.31.99-.12 0-.25-.01-.37-.02l-63-6.62c-1.93-.21-3.5-1.94-3.5-3.87 0-.99.42-1.85 1.08-2.41l.04-.04c.52-.42 1.18-.68 1.91-.69.03-.01.06-.01.09-.01.13 0 .25.01.38.02l63 6.62c1.93.2 3.5 1.93 3.5 3.87z"/></g><path fill="url(#v)" d="M79.019 82.19c0 1.03-.45 1.92-1.17 2.48l-.01.01-2.59 2.61c.44-.52.72-1.2.74-1.96.01-.04.01-.08.01-.12 0-1.94-1.57-3.67-3.5-3.87l-63-6.62c-.13-.01-.25-.02-.38-.02-.03 0-.06 0-.09.01-.73.01-1.39.27-1.91.69l2.6-2.6.04-.05c.58-.67 1.43-1.07 2.39-1.07.12 0 .25.01.37.02l63 6.62c1.93.2 3.5 1.94 3.5 3.87z"/><path fill="url(#w)" stroke="url(#x)" stroke-width=".3" d="m75.844 85.294-.004.016v.016a3 3 0 0 1-.704 1.867h-.001l-.066.076-.001.001c-.541.588-1.32.94-2.199.94-.112 0-.236-.009-.355-.019h-.002L9.516 81.57c-1.855-.202-3.366-1.869-3.366-3.72 0-.947.401-1.765 1.027-2.296l.009-.009.034-.034a2.943 2.943 0 0 1 1.812-.652h.023l.022-.007.01-.002h.033c.115 0 .222.008.343.017l.023.002h.002l62.996 6.62c1.855.192 3.366 1.858 3.366 3.72 0 .043 0 .065-.006.084z"/><g filter="url(#y)"><path fill="#fefefe" d="m159.22 47.835-9.236 2.56-8.724 3.968 9.236-2.56 8.724-3.968z"/></g><g filter="url(#z)"><path fill="#fefefe" d="m159.42 54.355-8.696-4.029-9.218-2.624 8.696 4.03 9.218 2.623z"/></g><defs><linearGradient id="a" x1="92" x2="117" y1=".5" y2="158.5" gradientUnits="userSpaceOnUse"><stop offset="0" stop-color="#fefefe" stop-opacity=".71"/><stop offset=".398" stop-color="#fefefe" stop-opacity=".807"/><stop offset=".553" stop-color="#fefefe" stop-opacity="0"/></linearGradient><linearGradient id="b" x1="81" x2="120.5" y1="53" y2="104" gradientUnits="userSpaceOnUse"><stop offset="0" stop-color="#34946d"/><stop offset=".228" stop-color="#40b388"/><stop offset=".294" stop-color="#4ad29d"/><stop offset=".342" stop-color="#5ae4ad"/><stop offset=".51" stop-color="#5ae4ad"/><stop offset=".644" stop-color="#4ad29d"/><stop offset="1" stop-color="#57f1c2"/></linearGradient><linearGradient id="c" x1="91" x2="153.5" y2="61" gradientUnits="userSpaceOnUse"><stop offset="0" stop-color="#f6fdfb"/><stop offset=".068" stop-color="#fcfcfc"/><stop offset=".13" stop-color="#d7fced"/><stop offset=".214" stop-color="#4ad29d"/><stop offset=".339" stop-color="#90f7cb"/><stop offset=".851" stop-color="#36c788"/><stop offset=".986" stop-color="#34946d"/></linearGradient><linearGradient id="d" x1="147.5" x2="161" y1="49.5" y2="62.5" gradientUnits="userSpaceOnUse"><stop offset="0" stop-color="#e4f2f3"/><stop offset=".182" stop-color="#f6fdfb"/><stop offset=".245" stop-color="#f6fdfb"/><stop offset=".302" stop-color="#b6ede2"/><stop offset=".51" stop-color="#4ad29d"/><stop offset=".807" stop-color="#40b388"/><stop offset="1" stop-color="#34946d"/></linearGradient><linearGradient id="e" x1="153" x2="132" y1="164" y2="92.5" gradientUnits="userSpaceOnUse"><stop offset="0" stop-color="#71ddb3"/><stop offset="1" stop-color="#2ea773"/></linearGradient><linearGradient id="f" x1="56.5" x2="70" y1="141.5" y2="93.5" gradientUnits="userSpaceOnUse"><stop offset="0" stop-color="#71ddb3"/><stop offset="1" stop-color="#2ea773"/></linearGradient><linearGradient id="g" x1="77" x2="92.5" y1="25" y2="19.5" gradientUnits="userSpaceOnUse"><stop offset="0" stop-color="#b6ede2"/><stop offset="1" stop-color="#f6fdfb"/></linearGradient><linearGradient id="i" x1="4.5" x2="129" y1="25.5" y2="181.5" gradientUnits="userSpaceOnUse"><stop offset="0" stop-color="#fcfcfc"/><stop offset=".365" stop-color="#fcfcfc"/><stop offset=".48" stop-color="#e4f2f3"/><stop offset="1" stop-color="#b6ede2"/></linearGradient><linearGradient id="k" x1="25" x2="82.866" y1="26" y2="193.77" gradientUnits="userSpaceOnUse"><stop offset="0" stop-color="#6afebe" stop-opacity=".1"/><stop offset=".744" stop-color="#5ae4ad" stop-opacity=".215"/><stop offset="1" stop-color="#4ad29d" stop-opacity=".29"/></linearGradient><linearGradient id="l" x1="42.5" x2="63.51" y1="29" y2="176.31" gradientUnits="userSpaceOnUse"><stop offset="0" stop-color="#fefefe"/><stop offset=".531" stop-color="#fefefe" stop-opacity=".87"/><stop offset="1" stop-color="#fefefe" stop-opacity="0"/></linearGradient><linearGradient id="n" x1="15.5" x2="56.5" y1="84.36" y2="108.36" gradientUnits="userSpaceOnUse"><stop offset="0" stop-color="#f8f8f8"/><stop offset=".491" stop-color="#e4f2f3"/><stop offset=".84" stop-color="#a3edda"/><stop offset="1" stop-color="#36c788"/></linearGradient><linearGradient id="o" x1="6" x2="52" y1="94.86" y2="109.86" gradientUnits="userSpaceOnUse"><stop offset="0" stop-color="#6afebe" stop-opacity=".36"/><stop offset="0" stop-color="#6afebe" stop-opacity=".75"/><stop offset="1" stop-color="#36c788" stop-opacity=".79"/></linearGradient><linearGradient id="p" x1="8" x2="8" y1="97" y2="102.5" gradientUnits="userSpaceOnUse"><stop offset="0" stop-color="#fefefe"/><stop offset=".755" stop-color="#fefefe" stop-opacity="0"/></linearGradient><linearGradient id="r" x1="12" x2="69.578" y1="38.5" y2="77.084" gradientUnits="userSpaceOnUse"><stop offset="0" stop-color="#f8f8f8"/><stop offset=".611" stop-color="#e4f2f3"/><stop offset=".886" stop-color="#a3edda"/><stop offset="1" stop-color="#36c788"/></linearGradient><linearGradient id="s" x1="6" x2="72.742" y1="51.224" y2="73.703" gradientUnits="userSpaceOnUse"><stop offset="0" stop-color="#6afebe" stop-opacity=".36"/><stop offset="0" stop-color="#6afebe" stop-opacity=".75"/><stop offset="1" stop-color="#36c788" stop-opacity=".79"/></linearGradient><linearGradient id="t" x1="8.5" x2="8.5" y1="53" y2="58" gradientUnits="userSpaceOnUse"><stop offset="0" stop-color="#fefefe"/><stop offset=".823" stop-color="#fefefe" stop-opacity=".927"/><stop offset="1" stop-color="#fefefe" stop-opacity="0"/></linearGradient><linearGradient id="v" x1="12" x2="69.578" y1="60.18" y2="98.764" gradientUnits="userSpaceOnUse"><stop offset="0" stop-color="#f8f8f8"/><stop offset=".611" stop-color="#e4f2f3"/><stop offset=".886" stop-color="#a3edda"/><stop offset="1" stop-color="#36c788"/></linearGradient><linearGradient id="w" x1="6" x2="72.742" y1="72.904" y2="95.383" gradientUnits="userSpaceOnUse"><stop offset="0" stop-color="#6afebe" stop-opacity=".36"/><stop offset="0" stop-color="#6afebe" stop-opacity=".75"/><stop offset="1" stop-color="#36c788" stop-opacity=".79"/></linearGradient><linearGradient id="x" x1="7.5" x2="7.5" y1="74.5" y2="81" gradientUnits="userSpaceOnUse"><stop offset="0" stop-color="#fefefe"/><stop offset=".609" stop-color="#fefefe" stop-opacity=".87"/><stop offset="1" stop-color="#fefefe" stop-opacity="0"/></linearGradient><filter id="h" width="134.64" height="155.28" x=".07" y="21" color-interpolation-filters="sRGB" filterUnits="userSpaceOnUse"><feFlood flood-opacity="0" result="BackgroundImageFix"/><feGaussianBlur in="BackgroundImage" stdDeviation="3"/><feComposite in2="SourceAlpha" operator="in" result="effect1_backgroundBlur"/><feBlend in="SourceGraphic" in2="effect1_backgroundBlur" result="shape"/><feGaussianBlur result="effect2_foregroundBlur" stdDeviation=".5"/></filter><filter id="j" width="139.02" height="159.62" x="-6" y="22.691" color-interpolation-filters="sRGB" filterUnits="userSpaceOnUse"><feFlood flood-opacity="0" result="BackgroundImageFix"/><feGaussianBlur in="BackgroundImage" stdDeviation="3"/><feComposite in2="SourceAlpha" operator="in" result="effect1_backgroundBlur"/><feBlend in="SourceGraphic" in2="effect1_backgroundBlur" result="shape"/></filter><filter id="m" width="62" height="23.56" x="4" y="92.36" color-interpolation-filters="sRGB" filterUnits="userSpaceOnUse"><feFlood flood-opacity="0" result="BackgroundImageFix"/><feColorMatrix in="SourceAlpha" values="0 0 0 0 0 0 0 0 0 0 0 0 0 0 0 0 0 0 127 0"/><feOffset dx="1" dy="5"/><feGaussianBlur stdDeviation="3"/><feColorMatrix values="0 0 0 0 0 0 0 0 0 0 0 0 0 0 0 0 0 0 0.25 0"/><feBlend in2="BackgroundImageFix" result="effect1_dropShadow"/><feBlend in="SourceGraphic" in2="effect1_dropShadow" result="shape"/></filter><filter id="q" width="82" height="25.66" x="4" y="49" color-interpolation-filters="sRGB" filterUnits="userSpaceOnUse"><feFlood flood-opacity="0" result="BackgroundImageFix"/><feColorMatrix in="SourceAlpha" values="0 0 0 0 0 0 0 0 0 0 0 0 0 0 0 0 0 0 127 0"/><feOffset dx="1" dy="5"/><feGaussianBlur stdDeviation="3"/><feColorMatrix values="0 0 0 0 0 0 0 0 0 0 0 0 0 0 0 0 0 0 0.25 0"/><feBlend in2="BackgroundImageFix" result="effect1_dropShadow"/><feBlend in="SourceGraphic" in2="effect1_dropShadow" result="shape"/></filter><filter id="u" width="82" height="25.66" x="4" y="70.68" color-interpolation-filters="sRGB" filterUnits="userSpaceOnUse"><feFlood flood-opacity="0" result="BackgroundImageFix"/><feColorMatrix in="SourceAlpha" values="0 0 0 0 0 0 0 0 0 0 0 0 0 0 0 0 0 0 127 0"/><feOffset dx="1" dy="5"/><feGaussianBlur stdDeviation="3"/><feColorMatrix values="0 0 0 0 0 0 0 0 0 0 0 0 0 0 0 0 0 0 0.25 0"/><feBlend in2="BackgroundImageFix" result="effect1_dropShadow"/><feBlend in="SourceGraphic" in2="effect1_dropShadow" result="shape"/></filter><filter id="y" width="22.472" height="11.937" x="139" y="45.13" color-interpolation-filters="sRGB" filterUnits="userSpaceOnUse"><feFlood flood-opacity="0" result="BackgroundImageFix"/><feBlend in="SourceGraphic" in2="BackgroundImageFix" result="shape"/><feGaussianBlur result="effect1_foregroundBlur" stdDeviation="1"/></filter><filter id="z" width="22.436" height="12.058" x="139.25" y="45" color-interpolation-filters="sRGB" filterUnits="userSpaceOnUse"><feFlood flood-opacity="0" result="BackgroundImageFix"/><feBlend in="SourceGraphic" in2="BackgroundImageFix" result="shape"/><feGaussianBlur result="effect1_foregroundBlur" stdDeviation="1"/></filter></defs></svg>
