<svg xmlns="http://www.w3.org/2000/svg" width="800" height="800" viewBox="-0.24 0 60.776 60.776"><g data-name="Group 15"><path fill="#a9afbb" d="m11.49 39.81 27.087-27.087 8.997 8.998-27.087 27.086z" data-name="Rectangle 16"/><g fill="#dce2e9"><path d="m12.45 40.76 27.091-27.091 7.08 7.08-27.091 27.09z" data-name="Rectangle 17"/><path d="M390.72 468.99a11.449 11.449 0 0 0-5.859-3.14l-4.209 4.209 1.32 1.32a5.774 5.774 0 0 1 6.358 6.358l1.32 1.32 4.209-4.209a11.459 11.459 0 0 0-3.139-5.858z" data-name="Path 34" style="isolation:isolate;mix-blend-mode:multiply" transform="translate(-370.22 -429.19)"/><path d="m414.05 454.65 4.806-4.806-9-9-4.806 4.806a21.956 21.956 0 0 0 9 9z" data-name="Path 35" style="isolation:isolate;mix-blend-mode:multiply" transform="translate(-370.22 -429.19)"/><path d="M59.14 8.61c-1.574 2.79-7.2 12.843-13.752 6.286s3.495-12.179 6.286-13.753C54.53-.469 41.127-1.172 36.246 4.476s-.193 12.828 3.271 16.291 10.641 8.152 16.289 3.27S60.752 5.757 59.14 8.61z" data-name="Path 36"/></g><g data-name="Group 11"><path fill="#dce2e9" d="M412.51 447.19c-3.088-3.087-7.231-9.376-3.457-14.5a8.223 8.223 0 0 0-1.333 1.222c-4.51 5.218-.178 11.85 3.021 15.049s9.832 7.533 15.051 3.023a8.32 8.32 0 0 0 1.221-1.335c-5.126 3.773-11.417-.37-14.503-3.459z" data-name="Path 37" style="isolation:isolate;mix-blend-mode:screen" transform="translate(-370.22 -429.19)"/></g><path fill="#dce2e9" d="M19.64 40.65a11.507 11.507 0 1 0 0 16.273 11.509 11.509 0 0 0 0-16.273zM7.414 52.876a5.783 5.783 0 1 1 8.178 0 5.784 5.784 0 0 1-8.178 0z" data-name="Path 38"/><g data-name="Group 12"><path fill="#dce2e9" d="M376.05 483.65a10.283 10.283 0 0 1-.8-13.638 10.042 10.042 0 0 0-.911.8 10.289 10.289 0 0 0 14.551 14.55 10.484 10.484 0 0 0 .8-.91 10.284 10.284 0 0 1-13.64-.802z" data-name="Path 39" style="isolation:isolate;mix-blend-mode:screen" transform="translate(-370.22 -429.19)"/></g><g data-name="Group 13"><path fill="#a9afbb" d="M16.24 44.05a6.767 6.767 0 0 1 .527 8.972 6.549 6.549 0 0 0 .6-.527 6.767 6.767 0 1 0-9.569-9.57 6.9 6.9 0 0 0-.528.6 6.766 6.766 0 0 1 8.97.525Z" data-name="Path 40"/></g><path fill="#dce2e9" d="m403.92 462.91-8.19-7.942-2.5 2.505 7.942 8.189c-1.418 1.553-3.4 3.954-3 4.861l10.61-10.609c-.907-.4-3.309 1.578-4.862 2.996z" data-name="Path 41" style="isolation:isolate;mix-blend-mode:multiply" transform="translate(-370.22 -429.19)"/><path fill="#f9fcff" d="m44.83 42.43-3.054 3.053-30.3-31.243 2.115-2.114z" data-name="Path 42"/><path fill="#f9fcff" d="M6.01 2.55c-.8-.1-2.013 1-2.56 1.544S1.805 5.855 1.905 6.656s4.854 8.156 5.91 8.685 5.446-.1 5.446-.1l1.152-.181.18-1.151s.631-4.389.1-5.447S6.811 2.649 6.01 2.55z" data-name="Path 43"/><path fill="#ffc52f" d="M44.96 32.84c-1.823-1.824-3.957-1.513-5.834-1.933s-2.066-.578-1.846-4.682-7.736 3.963-7.736 3.963-8.065 7.954-3.963 7.735 4.264-.031 4.684 1.846.107 4.012 1.931 5.835S45.634 59.297 47.75 60.429c2.081 1.112 5.45-.55 8.495-3.54 2.991-3.043 4.652-6.414 3.54-8.5-1.13-2.111-13-13.724-14.825-15.549z" data-name="Path 44"/><g fill="#ca902b" data-name="Group 14"><path d="M43.77 33.54a1.48 1.48 0 0 0-2.093 0 1.479 1.479 0 0 0 0 2.091l12.89 12.889a1.479 1.479 0 0 0 2.092 0 1.479 1.479 0 0 0 0-2.091z" data-name="Path 45"/><path d="M39.96 35.59a1.477 1.477 0 0 0-2.091 0 1.479 1.479 0 0 0 0 2.092l14.639 14.639a1.479 1.479 0 0 0 2.092 0 1.478 1.478 0 0 0 0-2.09z" data-name="Path 46"/><path d="M37.04 38.52a1.481 1.481 0 0 0-2.092 0 1.481 1.481 0 0 0 0 2.092l14.637 14.641a1.482 1.482 0 0 0 2.092 0 1.479 1.479 0 0 0 0-2.092z" data-name="Path 47"/><path d="M34.98 42.32a1.478 1.478 0 0 0-2.092 0 1.478 1.478 0 0 0 0 2.09L45.78 57.3a1.482 1.482 0 0 0 2.092 0 1.48 1.48 0 0 0 0-2.092z" data-name="Path 48"/></g></g></svg>
