<svg xmlns="http://www.w3.org/2000/svg" width="173" height="177"><defs><linearGradient id="a" x1="10.026" x2="50.503" y1="109.45" y2="113.71" gradientUnits="userSpaceOnUse"><stop offset="0" stop-color="#fdfc85"/><stop offset="1" stop-color="#f0d82c"/></linearGradient><linearGradient id="b" x1="59.213" x2="59.213" y1="122.81" y2="169.53" gradientUnits="userSpaceOnUse"><stop offset="0" stop-color="#ddb70e"/><stop offset="1" stop-color="#c79900"/></linearGradient><linearGradient id="c" x1="10.273" x2="50.75" y1="73.898" y2="78.158" gradientUnits="userSpaceOnUse"><stop offset="0" stop-color="#fdfc85"/><stop offset="1" stop-color="#f0d82c"/></linearGradient><linearGradient id="d" x1="59.502" x2="59.502" y1="88.734" y2="120.14" gradientUnits="userSpaceOnUse"><stop offset="0" stop-color="#ddb70e"/><stop offset="1" stop-color="#c79900"/></linearGradient><linearGradient id="e" x1="58.336" x2="86.225" y1="116.09" y2="118.56" gradientUnits="userSpaceOnUse"><stop offset="0" stop-color="#f1d800"/><stop offset="1" stop-color="#f0d82c"/></linearGradient><linearGradient id="f" x1="93.608" x2="93.608" y1="126.42" y2="173.15" gradientUnits="userSpaceOnUse"><stop offset="0" stop-color="#ddb70e"/><stop offset="1" stop-color="#c79900"/></linearGradient><linearGradient id="g" x1="10.521" x2="50.998" y1="38.346" y2="42.607" gradientUnits="userSpaceOnUse"><stop offset="0" stop-color="#fdfc85"/><stop offset="1" stop-color="#f0d82c"/></linearGradient><linearGradient id="h" x1="7.539" x2="13.078" y1="42.607" y2="38.772" gradientUnits="userSpaceOnUse"><stop offset="0" stop-color="#f3febe"/><stop offset=".656" stop-color="#f3febe" stop-opacity=".859"/><stop offset="1" stop-color="#f3febe" stop-opacity="0"/></linearGradient><linearGradient id="i" x1="59.753" x2="59.753" y1="52.884" y2="84.294" gradientUnits="userSpaceOnUse"><stop offset="0" stop-color="#ddb70e"/><stop offset="1" stop-color="#c79900"/></linearGradient><linearGradient id="j" x1="58.59" x2="86.473" y1="80.238" y2="82.709" gradientUnits="userSpaceOnUse"><stop offset="0" stop-color="#f1d800"/><stop offset="1" stop-color="#f0d82c"/></linearGradient><linearGradient id="k" x1="93.903" x2="93.903" y1="92.347" y2="123.76" gradientUnits="userSpaceOnUse"><stop offset="0" stop-color="#ddb70e"/><stop offset="1" stop-color="#c79900"/></linearGradient><linearGradient id="l" x1="92.735" x2="120.62" y1="119.7" y2="122.17" gradientUnits="userSpaceOnUse"><stop offset="0" stop-color="#f1d800"/><stop offset="1" stop-color="#f0d82c"/></linearGradient><linearGradient id="m" x1="128.01" x2="128.01" y1="130.04" y2="176.76" gradientUnits="userSpaceOnUse"><stop offset="0" stop-color="#ddb70e"/><stop offset="1" stop-color="#c79900"/></linearGradient><linearGradient id="n" x1="58.846" x2="86.728" y1="43.511" y2="45.984" gradientUnits="userSpaceOnUse"><stop offset="0" stop-color="#f1d800"/><stop offset="1" stop-color="#f0d82c"/></linearGradient><linearGradient id="o" x1="94.151" x2="94.151" y1="56.497" y2="87.907" gradientUnits="userSpaceOnUse"><stop offset="0" stop-color="#ddb70e"/><stop offset="1" stop-color="#c79900"/></linearGradient><linearGradient id="p" x1="60.064" x2="60.064" y1=".835" y2="47.558" gradientUnits="userSpaceOnUse"><stop offset="0" stop-color="#ddb70e"/><stop offset="1" stop-color="#c79900"/></linearGradient><linearGradient id="q" x1="50.063" x2="62.159" y1=".025" y2=".67" gradientUnits="userSpaceOnUse"><stop offset="0" stop-color="#fdfc85"/><stop offset="1" stop-color="#f0d82c"/></linearGradient><linearGradient id="r" x1="49.719" x2="57.389" y1="3.409" y2="1.704" gradientUnits="userSpaceOnUse"><stop offset="0" stop-color="#f3febe"/><stop offset=".26" stop-color="#f3febe" stop-opacity=".859"/><stop offset="1" stop-color="#f3febe" stop-opacity="0"/></linearGradient><linearGradient id="s" x1="92.983" x2="120.87" y1="83.86" y2="86.334" gradientUnits="userSpaceOnUse"><stop offset="0" stop-color="#f1d800"/><stop offset="1" stop-color="#f0d82c"/></linearGradient><linearGradient id="t" x1="128.3" x2="128.3" y1="94.486" y2="125.9" gradientUnits="userSpaceOnUse"><stop offset="0" stop-color="#ddb70e"/><stop offset="1" stop-color="#c79900"/></linearGradient><linearGradient id="u" x1="128.03" x2="168.52" y1="121.85" y2="126.11" gradientUnits="userSpaceOnUse"><stop offset="0" stop-color="#f1d800"/><stop offset="1" stop-color="#f0d82c"/></linearGradient><linearGradient id="v" x1="169.45" x2="169.45" y1="126.14" y2="138.46" gradientUnits="userSpaceOnUse"><stop offset="0" stop-color="#ddb70e"/><stop offset="1" stop-color="#c79900"/></linearGradient><linearGradient id="w" x1="93.238" x2="121.12" y1="47.124" y2="49.597" gradientUnits="userSpaceOnUse"><stop offset="0" stop-color="#f1d800"/><stop offset="1" stop-color="#f0d82c"/></linearGradient><linearGradient id="x" x1="128.55" x2="128.55" y1="58.934" y2="90.344" gradientUnits="userSpaceOnUse"><stop offset="0" stop-color="#ddb70e"/><stop offset="1" stop-color="#c79900"/></linearGradient><linearGradient id="y" x1="94.457" x2="94.457" y1="4.449" y2="51.172" gradientUnits="userSpaceOnUse"><stop offset="0" stop-color="#ddb70e"/><stop offset="1" stop-color="#c79900"/></linearGradient><linearGradient id="z" x1="84.456" x2="96.552" y1="3.638" y2="4.283" gradientUnits="userSpaceOnUse"><stop offset="0" stop-color="#fdfc85"/><stop offset="1" stop-color="#f0d82c"/></linearGradient><linearGradient id="A" x1="169.69" x2="169.69" y1="90.6" y2="102.91" gradientUnits="userSpaceOnUse"><stop offset="0" stop-color="#ddb70e"/><stop offset="1" stop-color="#c79900"/></linearGradient><linearGradient id="B" x1="128.28" x2="168.76" y1="86.305" y2="90.567" gradientUnits="userSpaceOnUse"><stop offset="0" stop-color="#f1d800"/><stop offset="1" stop-color="#f0d82c"/></linearGradient><linearGradient id="C" x1="128.85" x2="128.85" y1="8.07" y2="54.793" gradientUnits="userSpaceOnUse"><stop offset="0" stop-color="#ddb70e"/><stop offset="1" stop-color="#c79900"/></linearGradient><linearGradient id="D" x1="118.86" x2="130.95" y1="7.251" y2="7.896" gradientUnits="userSpaceOnUse"><stop offset="0" stop-color="#fdfc85"/><stop offset="1" stop-color="#f0d82c"/></linearGradient><linearGradient id="E" x1="50.572" x2="55.258" y1="5.539" y2="10.226" gradientUnits="userSpaceOnUse"><stop offset="0" stop-color="#f3febe"/><stop offset=".438" stop-color="#f3febe" stop-opacity=".813"/><stop offset="1" stop-color="#f3febe" stop-opacity="0"/></linearGradient><linearGradient id="F" x1="128.53" x2="169.01" y1="50.745" y2="55.003" gradientUnits="userSpaceOnUse"><stop offset="0" stop-color="#f1d800"/><stop offset="1" stop-color="#f0d82c"/></linearGradient><linearGradient id="G" x1="169.94" x2="169.94" y1="55.04" y2="67.353" gradientUnits="userSpaceOnUse"><stop offset="0" stop-color="#ddb70e"/><stop offset="1" stop-color="#c79900"/></linearGradient><linearGradient id="H" x1="31.825" x2="156.24" y1="15.339" y2="168.3" gradientUnits="userSpaceOnUse"><stop offset="0" stop-color="#f4fcb2"/><stop offset=".464" stop-color="#f4fcb2"/><stop offset="1" stop-color="#f8f79f"/></linearGradient><linearGradient id="J" x1="22.452" x2="111.29" y1="17.043" y2="181.69" gradientUnits="userSpaceOnUse"><stop offset="0" stop-color="#fcde67" stop-opacity=".4"/><stop offset=".81" stop-color="#f7c823" stop-opacity=".44"/><stop offset="1" stop-color="#c79900" stop-opacity=".6"/></linearGradient><linearGradient id="L" x1="21.174" x2="114.06" y1="19.6" y2="120.58" gradientUnits="userSpaceOnUse"><stop offset="0" stop-color="#f3febe"/><stop offset=".328" stop-color="#f3febe" stop-opacity=".906"/><stop offset="1" stop-color="#f3febe" stop-opacity="0"/></linearGradient><linearGradient id="M" x1="53.128" x2="110.65" y1="69.024" y2="126.97" gradientUnits="userSpaceOnUse"><stop offset="0" stop-color="#f7c823" stop-opacity=".96"/><stop offset="1" stop-color="#d2ab00" stop-opacity=".98"/></linearGradient><linearGradient id="O" x1="52.276" x2="72.728" y1="61.354" y2="94.588" gradientUnits="userSpaceOnUse"><stop offset="0" stop-color="#f3febe"/><stop offset=".786" stop-color="#f3febe" stop-opacity="0"/></linearGradient><linearGradient id="P" x1="114.81" x2="114.81" y1="62.616" y2="128.43" gradientUnits="userSpaceOnUse"><stop offset="0" stop-color="#ddb70e"/><stop offset="1" stop-color="#c79900"/></linearGradient><linearGradient id="Q" x1="59.093" x2="114.48" y1="56.242" y2="64.763" gradientUnits="userSpaceOnUse"><stop offset="0" stop-color="#fdfc85"/><stop offset="1" stop-color="#f0d82c"/></linearGradient><linearGradient id="R" x1="53.128" x2="54.406" y1="60.502" y2="55.39" gradientUnits="userSpaceOnUse"><stop offset="0" stop-color="#f3febe"/><stop offset=".146" stop-color="#f3febe" stop-opacity=".818"/><stop offset="1" stop-color="#f3febe" stop-opacity="0"/></linearGradient><filter id="I" width="146.99" height="159.64" x="15.6" y="9.339"><feFlood color-interpolation-filters="sRGB" flood-opacity="0" result="BackgroundImageFix"/><feGaussianBlur color-interpolation-filters="sRGB" in="BackgroundImage" result="result2" stdDeviation="3 3"/><feComposite color-interpolation-filters="sRGB" in="result2" in2="SourceAlpha" operator="in" result="effect1_backgroundBlur"/><feBlend color-interpolation-filters="sRGB" in="SourceGraphic" in2="effect1_backgroundBlur" result="shape"/><feGaussianBlur color-interpolation-filters="sRGB" in="shape" result="effect2_foregroundBlur" stdDeviation="0.5 0.5"/></filter><filter id="K" width="148.34" height="160.97" x="12.191" y="11.212"><feFlood color-interpolation-filters="sRGB" flood-opacity="0" result="BackgroundImageFix"/><feGaussianBlur color-interpolation-filters="sRGB" in="BackgroundImage" result="result2" stdDeviation="3 3"/><feComposite color-interpolation-filters="sRGB" in="result2" in2="SourceAlpha" operator="in" result="effect1_backgroundBlur"/><feBlend color-interpolation-filters="sRGB" in="SourceGraphic" in2="effect1_backgroundBlur" result="shape"/></filter><filter id="N" width="73.394" height="79.958" x="52.276" y="58.468"><feFlood color-interpolation-filters="sRGB" flood-opacity="0" result="BackgroundImageFix"/><feColorMatrix color-interpolation-filters="sRGB" in="SourceAlpha" result="result2" values="0 0 0 0 0 0 0 0 0 0 0 0 0 0 0 0 0 0 127 0"/><feOffset color-interpolation-filters="sRGB" dx="8" dy="4" in="result2" result="result3"/><feGaussianBlur color-interpolation-filters="sRGB" in="result3" result="result4" stdDeviation="3 3"/><feColorMatrix color-interpolation-filters="sRGB" in="result4" result="result5" values="0 0 0 0 0 0 0 0 0 0 0 0 0 0 0 0 0 0 0.2 0"/><feBlend color-interpolation-filters="sRGB" in="result5" in2="BackgroundImageFix" result="effect1_dropShadow"/><feBlend color-interpolation-filters="sRGB" in="SourceGraphic" in2="effect1_dropShadow" result="shape"/></filter><filter id="S" width="19.741" height="10.763" x="46.016" y="54.353"><feFlood color-interpolation-filters="sRGB" flood-opacity="0" result="BackgroundImageFix"/><feBlend color-interpolation-filters="sRGB" in="SourceGraphic" in2="BackgroundImageFix" result="shape"/><feGaussianBlur color-interpolation-filters="sRGB" in="shape" result="effect1_foregroundBlur" stdDeviation="1 1"/></filter><filter id="T" width="19.711" height="10.866" x="46.227" y="54.242"><feFlood color-interpolation-filters="sRGB" flood-opacity="0" result="BackgroundImageFix"/><feBlend color-interpolation-filters="sRGB" in="SourceGraphic" in2="BackgroundImageFix" result="shape"/><feGaussianBlur color-interpolation-filters="sRGB" in="shape" result="effect1_foregroundBlur" stdDeviation="1 1"/></filter><filter id="U" width="19.741" height="10.763" x="0" y="37.31"><feFlood color-interpolation-filters="sRGB" flood-opacity="0" result="BackgroundImageFix"/><feBlend color-interpolation-filters="sRGB" in="SourceGraphic" in2="BackgroundImageFix" result="shape"/><feGaussianBlur color-interpolation-filters="sRGB" in="shape" result="effect1_foregroundBlur" stdDeviation="1 1"/></filter><filter id="V" width="19.711" height="10.866" x=".211" y="37.199"><feFlood color-interpolation-filters="sRGB" flood-opacity="0" result="BackgroundImageFix"/><feBlend color-interpolation-filters="sRGB" in="SourceGraphic" in2="BackgroundImageFix" result="shape"/><feGaussianBlur color-interpolation-filters="sRGB" in="shape" result="effect1_foregroundBlur" stdDeviation="1 1"/></filter></defs><path fill="url(#a)" d="m7.17 113.49 6.06-4.08 41.26 4.33-6.07 4.09-41.25-4.34z"/><path fill="url(#b)" d="m56.33 126.89 6.06-4.08-.29 42.63-6.07 4.09.3-42.64z"/><path fill="url(#c)" d="m7.42 77.95 6.06-4.09 41.26 4.33-6.07 4.08-41.25-4.32z"/><path fill="url(#d)" d="m56.57 92.82 6.06-4.09-.19 27.32-6.06 4.09.19-27.32z"/><path fill="url(#e)" d="m56.38 120.14 6.06-4.09 26.44 2.78-6.07 4.08-26.43-2.77z"/><path fill="url(#f)" d="m90.72 130.51 6.07-4.09-.3 42.64-6.06 4.09.29-42.64z"/><path fill="url(#g)" stroke="url(#h)" stroke-width=".3" d="M48.88 46.57 8.09 42.28l5.67-3.82 40.8 4.28-5.68 3.83z"/><path fill="url(#i)" d="m56.82 56.97 6.06-4.09-.19 27.32-6.06 4.09.19-27.32z"/><path fill="url(#j)" d="m56.63 84.29 6.06-4.09 26.43 2.78-6.06 4.09-26.43-2.78z"/><path fill="url(#k)" d="m90.96 96.44 6.07-4.09-.2 27.32-6.05 4.09.18-27.32z"/><path fill="url(#l)" d="m90.78 123.76 6.05-4.09 26.44 2.77-6.06 4.09-26.43-2.77z"/><path fill="url(#m)" d="m125.13 134.13 6.06-4.09-.3 42.63-6.06 4.09.3-42.63z"/><path fill="url(#n)" d="m56.89 47.56 6.05-4.08 26.44 2.77-6.06 4.09-26.43-2.78z"/><path fill="url(#o)" d="m91.21 60.58 6.07-4.08-.19 27.33-6.07 4.08.19-27.33z"/><path fill="url(#p)" d="M57.18 4.93 63.24.84l-.3 42.64-6.05 4.08.29-42.63z"/><path fill="url(#q)" stroke="url(#r)" stroke-width=".3" d="m57.14 4.77-7.5-.79L55.32.15l7.5.79-5.68 3.83z"/><path fill="url(#s)" d="m91.02 87.91 6.07-4.08 26.43 2.77-6.06 4.09-26.44-2.78z"/><path fill="url(#t)" d="m125.37 98.58 6.06-4.09-.19 27.32-6.06 4.09.19-27.32z"/><path fill="url(#u)" d="m125.18 125.9 6.06-4.09 41.26 4.33-6.06 4.09-41.26-4.33z"/><path fill="url(#v)" d="m166.44 130.23 6.06-4.09-.06 8.24-6.05 4.08.05-8.23z"/><path fill="url(#w)" d="m91.28 51.17 6.07-4.08 26.42 2.78-6.06 4.08-26.43-2.78z"/><path fill="url(#x)" d="m125.62 63.02 6.06-4.09-.19 27.33-6.07 4.08.2-27.32z"/><path fill="url(#y)" d="m91.58 8.54 6.06-4.09-.29 42.64-6.07 4.08.3-42.63z"/><path fill="url(#z)" d="m83.61 7.7 6.07-4.09 7.96.84-6.06 4.09-7.97-.84z"/><path fill="url(#A)" d="m166.69 94.68 6.06-4.08-.06 8.22-6.06 4.09.06-8.23z"/><path fill="url(#B)" d="m125.42 90.34 6.07-4.08 41.26 4.34-6.06 4.08-41.27-4.34z"/><path fill="url(#C)" d="m125.97 12.15 6.07-4.08-.3 42.63-6.07 4.09.3-42.64z"/><path fill="url(#D)" d="m118.01 11.32 6.06-4.09 7.97.84-6.07 4.08-7.96-.83z"/><path fill="#fec200" stroke="url(#E)" stroke-width=".3" d="m166.73 67.19-41.09-4.32-.17-.02v.16l-.19 27.33v.14l.14.01 41.12 4.33-.05 7.93-41.1-4.32-.17-.02v.16l-.19 27.32v.14l.14.02 41.12 4.32-.05 7.93-41.1-4.32-.16-.02v.17l-.3 42.46-7.66-.8.3-42.5v-.13l-.14-.02-26.43-2.77-.17-.02v.16l-.29 42.47-7.66-.8.29-42.5.01-.14-.14-.01-26.43-2.78-.17-.02v.17l-.3 42.47-7.66-.81.3-42.49v-.14l-.13-.01-41.14-4.34.06-7.92 41.09 4.31.16.02v-.16l.19-27.32v-.14l-.13-.01-41.12-4.33.06-7.93 41.09 4.32.16.02v-.16l.19-27.33v-.14l-.14-.01-41.11-4.32.06-7.93 41.08 4.32.17.02v-.17l.3-42.46 7.65.8-.29 42.5v.13l.13.02 26.44 2.78.16.01v-.16l.3-42.47 7.66.8-.3 42.5v.14l.13.01 26.44 2.78.16.02v-.17l.3-42.47 7.66.81-.3 42.49v.14l.14.01 41.12 4.33-.04 7.93zM83.05 87.22l.16.02v-.17l.19-27.33v-.13l-.13-.02-26.44-2.77-.16-.02v.16l-.19 27.33v.14l.13.01 26.44 2.78zm34.39 3.61.17.02v-.16l.18-27.33.01-.14-.14-.01-26.43-2.78-.17-.02v.17l-.19 27.33v.13l.14.02 26.43 2.77zm-34.65 32.23.17.02v-.17l.19-27.32v-.13l-.14-.02-26.43-2.77-.17-.02v.16l-.19 27.32v.14l.14.01 26.43 2.78zm34.4 3.62.17.02v-.16l.19-27.32v-.14l-.14-.01-26.43-2.78-.17-.02v.17l-.18 27.32-.01.13.14.02 26.43 2.77z"/><path fill="url(#F)" d="m125.67 54.79 6.07-4.09L173 55.04l-6.06 4.09-41.27-4.34z"/><path fill="url(#G)" d="m166.94 59.13 6.06-4.09-.06 8.23-6.06 4.08.06-8.22z"/><path fill="url(#H)" d="M156.59 37.35v119.3c0 2.7-1.26 4.98-3.23 6.33.86-1.24 1.35-2.77 1.35-4.47V39.21c0-4.7-3.81-8.92-8.52-9.41L26.89 17.26c-2-.21-3.84.28-5.29 1.29 1.51-2.2 4.16-3.48 7.17-3.16l119.3 12.54c4.7.49 8.52 4.7 8.52 9.42z" filter="url(#I)"/><path fill="url(#J)" d="M154.53 39.21v119.3c0 1.7-.49 3.23-1.35 4.47-1.51 2.2-4.16 3.47-7.17 3.16L26.71 153.6c-4.7-.5-8.52-4.71-8.52-9.42V24.88c0-2.7 1.26-4.99 3.23-6.33 1.45-1.01 3.29-1.5 5.29-1.29l119.3 12.54c4.71.49 8.52 4.71 8.52 9.41z" filter="url(#K)"/><path fill="none" stroke="url(#L)" stroke-width=".3" d="M153.06 162.89c.84-1.21 1.32-2.71 1.32-4.38V39.21c0-4.62-3.75-8.78-8.38-9.26l.01-.15-.01.15L26.7 17.41c-1.97-.21-3.78.28-5.19 1.26-1.93 1.32-3.17 3.56-3.17 6.21v119.3c0 4.63 3.76 8.78 8.39 9.28m126.33 9.43.12.09c-1.51 2.2-4.16 3.47-7.17 3.16L26.71 153.6l.02-.14m126.33 9.43c-1.48 2.15-4.08 3.41-7.03 3.1l-119.3-12.53m126.33 9.43-126.33-9.43" filter="url(#K)"/><path fill="url(#M)" d="m111.67 66.84-.03 61.59-59.36-6.38.03-61.58 59.36 6.37z" filter="url(#N)"/><path fill="none" stroke="url(#O)" stroke-width=".3" d="m52.46 60.64 59.06 6.34-.03 61.28-59.06-6.34.03-61.28z" filter="url(#N)"/><path fill="url(#P)" d="m111.67 66.84 6.31-4.22-.03 61.57-6.31 4.24.03-61.59z"/><path fill="url(#Q)" stroke="url(#R)" stroke-width=".3" d="m111.63 66.69-58.89-6.33 5.93-3.96 58.89 6.32-5.93 3.97z"/><g fill="#f3febe"><path d="m63.54 56.95-7.87 2.18-7.44 3.39 7.87-2.19 7.44-3.38z" filter="url(#S)"/><path d="m63.71 62.51-7.41-3.43-7.85-2.24 7.41 3.43 7.85 2.24z" filter="url(#T)"/><path d="m17.52 39.91-7.87 2.18-7.43 3.38 7.87-2.18 7.43-3.38z" filter="url(#U)"/><path d="m17.7 45.47-7.41-3.44-7.86-2.23 7.41 3.43 7.86 2.24z" filter="url(#V)"/></g></svg>
