<svg xmlns="http://www.w3.org/2000/svg" width="800" height="800" viewBox="0 -0.3 62.096 62.096"><g data-name="Group 24"><g fill="#8c93a1" data-name="Group 19"><g data-name="Group 16"><path d="M6.16 55.93c-3.731-3.732-7.207-8.97-4.719-11.457a1.867 1.867 0 0 1 2.887 2.334c.109.86 1.444 3.455 4.471 6.483s5.622 4.363 6.484 4.47a1.867 1.867 0 0 1 2.333 2.889C15.13 63.135 9.891 59.66 6.16 55.93z" data-name="Path 49"/><path d="M242.743 363.645a1.867 1.867 0 0 1 .247 2.333c.11.861 1.445 3.457 4.473 6.484s5.623 4.362 6.483 4.472a1.864 1.864 0 0 1 2.592 2.556 2.522 2.522 0 0 0 .4-.329 1.867 1.867 0 0 0-2.333-2.889c-.862-.107-3.458-1.443-6.484-4.47s-4.362-5.623-4.471-6.483a1.867 1.867 0 0 0-2.887-2.334 2.744 2.744 0 0 0-.33.4 1.864 1.864 0 0 1 2.31.26Z" data-name="Path 50" opacity=".2" style="isolation:isolate;mix-blend-mode:screen" transform="translate(-239.32 -318.51)"/><path d="M246.14 373.78c-3.541-3.541-6.848-8.441-5.049-11.056a1.829 1.829 0 0 0-.329.259c-5.059 5.056 4.781 11.518 4.719 11.457-3.73-3.73 8.97 7.205 11.456 4.719a1.765 1.765 0 0 0 .26-.33c-2.616 1.8-7.514-1.507-11.057-5.049z" data-name="Path 51" opacity=".2" style="isolation:isolate;mix-blend-mode:multiply" transform="translate(-239.32 -318.51)"/></g><g data-name="Group 17"><path d="M8.8 53.29c-3.731-3.731-7.2-8.971-4.72-11.456a1.867 1.867 0 0 1 2.888 2.334c.108.859 1.444 3.456 4.472 6.483s5.623 4.362 6.483 4.471a1.867 1.867 0 0 1 2.334 2.888c-2.486 2.489-7.726-.987-11.457-4.72z" data-name="Path 52"/><path d="M245.382 361.006a1.866 1.866 0 0 1 .248 2.333c.108.861 1.444 3.457 4.472 6.484s5.622 4.362 6.483 4.471a1.866 1.866 0 0 1 2.594 2.558 3.07 3.07 0 0 0 .4-.33 1.867 1.867 0 0 0-2.334-2.888c-.86-.109-3.456-1.444-6.483-4.471s-4.364-5.624-4.472-6.483a1.867 1.867 0 0 0-2.888-2.334 3.215 3.215 0 0 0-.33.4 1.867 1.867 0 0 1 2.31.26Z" data-name="Path 53" opacity=".2" style="isolation:isolate;mix-blend-mode:screen" transform="translate(-239.32 -318.51)"/><path d="M248.78 371.14c-3.542-3.541-6.848-8.44-5.05-11.055a1.87 1.87 0 0 0-.33.259c-2.485 2.485.989 7.725 4.72 11.456s8.971 7.207 11.457 4.72a1.764 1.764 0 0 0 .258-.332c-2.613 1.801-7.513-1.506-11.055-5.048z" data-name="Path 54" opacity=".2" style="isolation:isolate;mix-blend-mode:multiply" transform="translate(-239.32 -318.51)"/></g><g data-name="Group 18"><path d="M11.44 50.65c-3.732-3.732-7.206-8.971-4.719-11.457a1.867 1.867 0 0 1 2.888 2.334c.107.859 1.442 3.455 4.47 6.482s5.623 4.364 6.485 4.473a1.866 1.866 0 0 1 2.333 2.887c-2.488 2.487-7.726-.988-11.457-4.719z" data-name="Path 55"/><path d="M251.42 368.5c-3.542-3.542-6.849-8.44-5.049-11.057a1.86 1.86 0 0 0-.33.26c-2.487 2.486.987 7.725 4.719 11.457s8.969 7.206 11.457 4.719a1.928 1.928 0 0 0 .259-.33c-2.616 1.804-7.514-1.505-11.056-5.049z" data-name="Path 56" opacity=".2" style="isolation:isolate;mix-blend-mode:multiply" transform="translate(-239.32 -318.51)"/></g></g><g data-name="Group 23"><path fill="#ffc52f" d="M55.27 6.82c-7.046-7.044-21.85-10.778-32.232-.4-8.315 8.317-9.632 22.278-10.454 25.323s-3.759 5.48-5.289 7.406.478 5.525 5.3 10.345 8.73 6.481 10.657 4.952 4.032-4.139 7.077-4.961 17.023-2.12 25.339-10.436C66.047 28.67 62.314 13.864 55.27 6.82z" data-name="Path 57"/><path fill="#8c93a1" d="M261.66 372.5c-1.19 1.191-5.345-1.032-9.277-4.965s-6.155-8.086-4.965-9.277 5.344 1.033 9.276 4.965 6.157 8.087 4.966 9.277z" data-name="Path 58" style="isolation:isolate;mix-blend-mode:multiply" transform="translate(-239.32 -318.51)"/><g fill="#f9ab2b" data-name="Group 20"><path d="m12.006 44.356-.016-.018a.491.491 0 0 1 .037-.695c.122-.109 7.007-5.8 8.693-8.163.683-.96 2.293-3.807 4-6.822 2.75-4.866 5.6-9.9 6.728-11.03a.495.495 0 0 1 .7.7c-1.039 1.04-4.105 6.462-6.566 10.818-1.792 3.17-3.34 5.908-4.055 6.909-1.746 2.445-8.335 7.872-8.834 8.322a.493.493 0 0 1-.687-.021Z" data-name="Path 59"/><path d="M17.739 50.09a.49.49 0 0 1-.017-.676c.45-.5 5.877-7.088 8.322-8.835 1-.714 3.74-2.263 6.909-4.054 4.357-2.463 9.778-5.527 10.818-6.567a.493.493 0 1 1 .7.694c-1.135 1.135-6.164 3.979-11.029 6.729-3.015 1.7-5.863 3.312-6.821 4-2.361 1.684-8.054 8.57-8.165 8.691a.489.489 0 0 1-.694.037c-.011-.011-.018-.019-.023-.019Z" data-name="Path 60"/><path d="m37.216 28.301-.029-.027c-1.254-1.3-6.891-9.945-7.129-10.313a.49.49 0 1 1 .822-.535c2.009 3.085 6.061 9.179 7.013 10.167a.074.074 0 0 1 .022.021c1 1 5.274 3.025 6.847 3.726a.49.49 0 1 1-.4.895c-.237-.105-5.805-2.592-7.146-3.934Z" data-name="Path 61"/></g><g fill="#ffc52f" data-name="Group 21" opacity=".8" style="isolation:isolate;mix-blend-mode:screen"><path d="M293.28 326.65c-6.188-6.19-19.192-9.469-28.312-.35-7.305 7.306 21.355 35.967 28.66 28.661 9.12-9.12 5.84-22.124-.348-28.311z" data-name="Path 62" opacity=".5" style="isolation:isolate;mix-blend-mode:screen" transform="translate(-239.32 -318.51)"/><path d="M251.93 354.19a18.885 18.885 0 0 0 3.6-5.769c1.042-3.038 5.9-15.272 6.118-14.014s7.019 14.164 16.313 21.346c1.129.955-6.724 7.941-9.025 7.55s-18.35-7.454-17.006-9.113z" data-name="Path 63" opacity=".5" style="isolation:isolate;mix-blend-mode:screen" transform="translate(-239.32 -318.51)"/></g><g data-name="Group 22" opacity=".8" style="isolation:isolate;mix-blend-mode:screen"><path fill="#ffc52f" d="M291.83 328.27c-5.485-5.485-6.166 31.573.31 25.1 8.084-8.087 5.175-19.615-.31-25.1z" data-name="Path 64" opacity=".5" style="isolation:isolate;mix-blend-mode:screen" transform="translate(-239.32 -318.51)"/></g></g></g></svg>
