<svg xmlns="http://www.w3.org/2000/svg" width="169" height="171"><defs><linearGradient id="a" x1="90.28" x2="91.5" y1="16.86" y2="133.57" gradientUnits="userSpaceOnUse"><stop offset="0" stop-color="#c5c5c5"/><stop offset=".141" stop-color="#c5c5c5" stop-opacity=".844"/><stop offset="1" stop-color="#c5c5c5" stop-opacity="0"/></linearGradient><linearGradient id="b" x1="32.126" x2="162.67" y1="16.453" y2="153.09" gradientUnits="userSpaceOnUse"><stop offset="0" stop-color="#c5c5c5"/><stop offset=".412" stop-color="#c4c4c4"/><stop offset=".594" stop-color="#b4b4b4"/><stop offset=".93" stop-color="#686b6e"/></linearGradient><linearGradient id="c" x1="4.069" x2="172.43" y1="-3.473" y2="172.61" gradientUnits="userSpaceOnUse"><stop offset="0" stop-color="#c3c3c3"/><stop offset=".172" stop-color="#c5c5c5"/><stop offset=".384" stop-color="#bfbfbf"/><stop offset=".573" stop-color="#c5c5c5"/><stop offset="1" stop-color="#c4c4c4"/></linearGradient><linearGradient id="e" x1="9.762" x2="23.693" y1="-3.88" y2="169.16" gradientUnits="userSpaceOnUse"><stop offset="0" stop-color="#c5c5c5" stop-opacity=".15"/><stop offset=".807" stop-color="#ababab" stop-opacity=".4"/><stop offset="1" stop-color="#999" stop-opacity=".51"/></linearGradient><linearGradient id="g" x1="25" x2="49.5" y1="-4" y2="173" gradientUnits="userSpaceOnUse"><stop offset="0" stop-color="#c5c5c5"/><stop offset="1" stop-color="#c5c5c5" stop-opacity="0"/></linearGradient><linearGradient id="h" x1="9.76" x2="72.72" y1="123" y2="141.75" gradientUnits="userSpaceOnUse"><stop offset="0" stop-color="#c5c5c5" stop-opacity=".36"/><stop offset="0" stop-color="#c5c5c5" stop-opacity=".75"/><stop offset="1" stop-color="#858a8e" stop-opacity=".79"/></linearGradient><linearGradient id="j" x1="18.706" x2="20.333" y1="127.07" y2="144.15" gradientUnits="userSpaceOnUse"><stop offset="0" stop-color="#c5c5c5"/><stop offset=".563" stop-color="#c5c5c5" stop-opacity=".839"/><stop offset="1" stop-color="#c5c5c5" stop-opacity="0"/></linearGradient><linearGradient id="k" x1="22.088" x2="73.612" y1="105.64" y2="145.44" gradientUnits="userSpaceOnUse"><stop offset=".051" stop-color="#c3c3c3"/><stop offset=".491" stop-color="#bababa"/><stop offset=".84" stop-color="#b4b4b4"/><stop offset="1" stop-color="#858a8e"/></linearGradient><filter id="d" width="175.83" height="177.91" x="-1.833" y="-5"><feFlood color-interpolation-filters="sRGB" flood-opacity="0" result="BackgroundImageFix"/><feGaussianBlur color-interpolation-filters="sRGB" in="BackgroundImage" result="result2" stdDeviation="3 3"/><feComposite color-interpolation-filters="sRGB" in="result2" in2="SourceAlpha" operator="in" result="effect1_backgroundBlur"/><feBlend color-interpolation-filters="sRGB" in="SourceGraphic" in2="effect1_backgroundBlur" result="shape"/><feGaussianBlur color-interpolation-filters="sRGB" in="shape" result="effect2_foregroundBlur" stdDeviation="0.5 0.5"/></filter><filter id="f" width="178.2" height="179.99" x="-6" y="-3.202"><feFlood color-interpolation-filters="sRGB" flood-opacity="0" result="BackgroundImageFix"/><feGaussianBlur color-interpolation-filters="sRGB" in="BackgroundImage" result="result2" stdDeviation="3 3"/><feComposite color-interpolation-filters="sRGB" in="result2" in2="SourceAlpha" operator="in" result="effect1_backgroundBlur"/><feBlend color-interpolation-filters="sRGB" in="SourceGraphic" in2="effect1_backgroundBlur" result="shape"/></filter><filter id="i" width="74.423" height="29.909" x="9.76" y="122.16"><feFlood color-interpolation-filters="sRGB" flood-opacity="0" result="BackgroundImageFix"/><feColorMatrix color-interpolation-filters="sRGB" in="SourceAlpha" result="result2" values="0 0 0 0 0 0 0 0 0 0 0 0 0 0 0 0 0 0 127 0"/><feOffset color-interpolation-filters="sRGB" dx="8" dy="1" in="result2" result="result3"/><feGaussianBlur color-interpolation-filters="sRGB" in="result3" result="result4" stdDeviation="3 3"/><feColorMatrix color-interpolation-filters="sRGB" in="result4" result="result5" values="0 0 0 0 0 0 0 0 0 0 0 0 0 0 0 0 0 0 0.25 0"/><feBlend color-interpolation-filters="sRGB" in="result5" in2="BackgroundImageFix" result="effect1_dropShadow"/><feBlend color-interpolation-filters="sRGB" in="SourceGraphic" in2="effect1_dropShadow" result="shape"/></filter><filter id="l" width="18.608" height="9.31" x="5.528" y="121.68"><feFlood color-interpolation-filters="sRGB" flood-opacity="0" result="BackgroundImageFix"/><feBlend color-interpolation-filters="sRGB" in="SourceGraphic" in2="BackgroundImageFix" result="shape"/><feGaussianBlur color-interpolation-filters="sRGB" in="shape" result="effect1_foregroundBlur" stdDeviation="1 1"/></filter><filter id="m" width="18.571" height="9.411" x="5.733" y="121.57"><feFlood color-interpolation-filters="sRGB" flood-opacity="0" result="BackgroundImageFix"/><feBlend color-interpolation-filters="sRGB" in="SourceGraphic" in2="BackgroundImageFix" result="shape"/><feGaussianBlur color-interpolation-filters="sRGB" in="shape" result="effect1_foregroundBlur" stdDeviation="1 1"/></filter></defs><path fill="#c5c5c5" stroke="url(#a)" stroke-width=".3" d="M155.82 152.74c-2.59 2.93-6.56 4.57-11.01 4.11l-97.94-10.3-.01.15.01-.15c-7.84-.82-14.19-7.84-14.19-15.68V32.94c0-3.94 1.61-7.34 4.21-9.62v-.01c.44-.39.91-.75 1.41-1.06 2.37-1.55 5.33-2.31 8.54-1.97l97.94 10.29c7.82.82 14.18 7.84 14.18 15.67v97.94c0 2.7-.75 5.14-2.06 7.15-.33.5-.69.97-1.08 1.41z"/><path fill="url(#b)" d="M162.7 42.65v97.93c0 3.85-1.51 7.19-3.98 9.5l-.16.15-2.63 2.61c.4-.45.76-.93 1.09-1.43 1.33-2.03 2.09-4.5 2.09-7.23V46.24c0-7.91-6.41-14.99-14.32-15.82L46.86 20.13c-3.25-.34-6.24.42-8.64 1.99-.51.32-.99.68-1.43 1.08l2.62-2.63.18-.2c2.63-2.77 6.52-4.29 10.85-3.84l97.94 10.3c7.91.83 14.32 7.91 14.32 15.82z"/><path fill="url(#c)" fill-opacity=".6" d="M165.06 165.81c-.37.4-.78.76-1.21 1.1 1.81-2.32 2.62-5.44 2.28-8.83l-8.78-84.36c-.38-3.73-2.16-7.45-4.93-10.34-2.71-2.86-6.24-4.7-9.79-5.09l-42.28-4.44c-11.57-1.22-22.66-10.24-27.39-22.33l-5.27-12.98C65.66 12.34 60 7.64 54.16 7.31L11.89 2.87c-2.92-.31-5.62.4-7.72 2.01.18-.23.37-.47.57-.69C6.96 1.82 10.18.7 13.69 1.07l42.28 4.44c5.83.33 11.49 5.03 13.52 11.23l5.27 12.98c4.74 12.09 15.82 21.12 27.39 22.34l42.28 4.44c3.54.38 7.09 2.22 9.79 5.08 2.77 2.9 4.55 6.61 4.94 10.35l8.77 84.36c.37 3.72-.66 7.15-2.87 9.52z" filter="url(#d)"/><path fill="url(#e)" d="M163.85 166.91c-.19.24-.38.47-.59.7-2.22 2.36-5.43 3.48-8.94 3.11L27.96 157.44c-3.52-.36-7.03-2.19-9.8-5.08-2.76-2.9-4.54-6.61-4.93-10.35L.08 15.52c-.39-3.7.64-7.11 2.87-9.53.38-.41.79-.78 1.22-1.11 2.1-1.61 4.8-2.32 7.72-2.01l42.27 4.44c5.84.33 11.5 5.03 13.53 11.23l5.27 12.98c4.73 12.09 15.82 21.11 27.39 22.33l42.28 4.44c3.55.39 7.08 2.23 9.79 5.09 2.77 2.89 4.55 6.61 4.93 10.34l8.78 84.36c.34 3.39-.47 6.51-2.28 8.83z" filter="url(#f)"/><path fill="none" stroke="url(#g)" stroke-width=".4" d="M163.69 166.78v.01c-.18.23-.37.46-.58.68-2.17 2.32-5.31 3.41-8.77 3.05L27.98 157.24c-3.46-.35-6.93-2.15-9.67-5.02s-4.5-6.54-4.88-10.23L.28 15.5c-.39-3.65.63-7 2.81-9.37.38-.4.78-.77 1.2-1.09C6.35 3.47 9 2.77 11.87 3.06l42.27 4.45h.01c5.75.32 11.35 4.96 13.35 11.09v.01l5.27 12.98c4.76 12.15 15.9 21.23 27.56 22.46l42.28 4.44c3.49.38 6.99 2.19 9.67 5.03 2.73 2.86 4.5 6.54 4.87 10.22l8.78 84.36c.33 3.34-.47 6.41-2.24 8.68z" filter="url(#f)"/><path fill="url(#h)" d="M70.18 139.95c0 1.3-.4 2.43-1.09 3.3-1.01 1.28-2.67 1.99-4.62 1.78l-47.67-5.01c-3.5-.37-6.63-3.54-7.01-7.08-.02-.22-.03-.45-.03-.66 0-1.54.57-2.86 1.52-3.77 1.03-.98 2.5-1.5 4.19-1.32l1.1.12 46.57 4.89c3.17.34 6.05 2.98 6.82 6.12.1.32.16.64.19.97.02.22.03.45.03.66z" filter="url(#i)"/><path fill="none" stroke="url(#j)" stroke-width=".4" d="M68.94 143.12c-.97 1.23-2.56 1.91-4.45 1.71l-47.67-5.01c-3.41-.36-6.46-3.45-6.83-6.9-.02-.22-.03-.44-.03-.64 0-1.49.55-2.75 1.46-3.62.98-.94 2.39-1.44 4.03-1.27l1.1.12 46.57 4.89c3.08.33 5.9 2.9 6.65 5.97v.01c.09.3.15.61.18.93.02.22.03.43.03.64 0 1.26-.38 2.34-1.04 3.17z" filter="url(#i)"/><path fill="url(#k)" d="M76.78 133.36c0 1.49-.54 2.77-1.44 3.68l-6.25 6.21c.69-.87 1.09-2 1.09-3.3 0-.22 0-.44-.03-.66-.03-.33-.09-.65-.19-.97-.77-3.14-3.65-5.78-6.82-6.12l-46.57-4.89-1.1-.12c-1.69-.18-3.16.34-4.19 1.32l6.01-5.91c.99-1.42 2.72-2.22 4.78-2l47.67 5.01c3.5.36 6.64 3.54 7.01 7.07.02.23.03.46.03.68z"/><path fill="#c5c5c5" d="m22.14 123.68-7.52 2.08-7.09 3.23 7.51-2.08 7.1-3.23z" filter="url(#l)"/><path fill="#c5c5c5" d="m22.3 128.98-7.07-3.27-7.5-2.14 7.08 3.28 7.49 2.13z" filter="url(#m)"/></svg>
