<svg xmlns="http://www.w3.org/2000/svg" xml:space="preserve" viewBox="0 0 1200 800"><style>.st1{fill:#1971c2}</style><path d="M0 0h1200v800H0z" style="fill:#364fc7"/><path d="M0 25V0h25zM0 100V75h25zM0 75V50h25zM0 175v-25h25zM0 200v-25h25zM125 200v-25h25zM25 50V25h25zM25 100V75h25zM50 25V0h25zM25 25V0h25zM75 50V25h25zM50 50v50l50-50zM100 25V0h25zM100 50V25h25zM100 100V75h25zM75 100V75h25zM100 150v-25h25zM125 75V50h25zM100 150v50l50-50zM125 100v50l50-50zM150 0v50l50-50zM175 75V50h25zM175 100V75h25zM150 150v50l50-50zM200 25V0h25zM175 100v50l50-50zM200 150v-25h25zM150 75V50h25zM200 175v25h25l25-25zM200 25v75l75-75zM275 100V75h25zM225 100v75l75-75zM25 125v75l75-75zM275 150v-25h25z" class="st1"/><path d="M250 150v50l50-50zM275 0v50l50-50zM300 75V50h25zM325 25V0h25zM325 75V50h25zM300 100V75h25zM325 125v-25h25zM300 125v50l50-50z" class="st1"/><path d="M275 175v25h50l25-25zM350 25V0h25zM350 50V25h25zM350 100V75h25zM350 125v-25h25zM350 175v-25h25zM375 50v50l25-25V50zM375 150v-25h25zM350 175v25h25l25-25zM400 25V0h25zM400 100V75h25zM400 75V50h25zM400 175v-25h25zM400 200v-25h25zM525 200v-25h25zM425 50V25h25zM425 100V75h25zM450 25V0h25zM425 25V0h25zM475 50V25h25zM450 50v50l50-50zM500 25V0h25zM500 50V25h25zM500 100V75h25zM475 100V75h25zM500 150v-25h25zM525 75V50h25zM500 150v50l50-50zM525 100v50l50-50zM550 0v50l50-50zM575 75V50h25zM575 100V75h25zM550 150v50l50-50zM600 25V0h25zM575 100v50l50-50zM600 150v-25h25zM550 75V50h25zM600 175v25h25l25-25zM600 25v75l75-75zM675 100V75h25zM625 100v75l75-75zM425 125v75l75-75zM675 150v-25h25z" class="st1"/><path d="M650 150v50l50-50zM675 0v50l50-50zM700 75V50h25zM725 25V0h25zM725 75V50h25zM700 100V75h25zM725 125v-25h25zM700 125v50l50-50z" class="st1"/><path d="M675 175v25h50l25-25zM750 25V0h25zM750 50V25h25zM750 100V75h25zM750 125v-25h25zM750 175v-25h25zM775 50v50l25-25V50zM775 150v-25h25zM750 175v25h25l25-25zM800 25V0h25zM800 100V75h25zM800 75V50h25zM800 175v-25h25zM800 200v-25h25zM925 200v-25h25zM825 50V25h25zM825 100V75h25zM850 25V0h25zM825 25V0h25zM875 50V25h25zM850 50v50l50-50zM900 25V0h25zM900 50V25h25zM900 100V75h25zM875 100V75h25zM900 150v-25h25zM925 75V50h25zM900 150v50l50-50zM925 100v50l50-50zM950 0v50l50-50zM975 75V50h25zM975 100V75h25zM950 150v50l50-50zM1000 25V0h25zM975 100v50l50-50zM1000 150v-25h25zM950 75V50h25zM1000 175v25h25l25-25zM1000 25v75l75-75zM1075 100V75h25zM1025 100v75l75-75zM825 125v75l75-75zM1075 150v-25h25z" class="st1"/><path d="M1050 150v50l50-50zM1075 0v50l50-50zM1100 75V50h25zM1125 25V0h25zM1125 75V50h25zM1100 100V75h25zM1125 125v-25h25zM1100 125v50l50-50z" class="st1"/><path d="M1075 175v25h50l25-25zM1150 25V0h25zM1150 50V25h25zM1150 100V75h25zM1150 125v-25h25zM1150 175v-25h25zM1175 50v50l25-25V50zM1175 150v-25h25zM1150 175v25h25l25-25zM0 225v-25h25zM0 300v-25h25zM0 275v-25h25zM0 375v-25h25zM0 400v-25h25zM125 400v-25h25zM25 250v-25h25zM25 300v-25h25zM50 225v-25h25zM25 225v-25h25zM75 250v-25h25zM50 250v50l50-50zM100 225v-25h25zM100 250v-25h25zM100 300v-25h25zM75 300v-25h25zM100 350v-25h25zM125 275v-25h25zM100 350v50l50-50zM125 300v50l50-50zM150 200v50l50-50zM175 275v-25h25zM175 300v-25h25zM150 350v50l50-50zM200 225v-25h25zM175 300v50l50-50zM200 350v-25h25zM150 275v-25h25zM200 375v25h25l25-25zM200 225v75l75-75zM275 300v-25h25zM225 300v75l75-75zM25 325v75l75-75zM275 350v-25h25z" class="st1"/><path d="M250 350v50l50-50zM275 200v50l50-50zM300 275v-25h25zM325 225v-25h25zM325 275v-25h25zM300 300v-25h25zM325 325v-25h25zM300 325v50l50-50z" class="st1"/><path d="M275 375v25h50l25-25zM350 225v-25h25zM350 250v-25h25zM350 300v-25h25zM350 325v-25h25zM350 375v-25h25zM375 250v50l25-25v-25zM375 350v-25h25zM350 375v25h25l25-25zM400 225v-25h25zM400 300v-25h25zM400 275v-25h25zM400 375v-25h25zM400 400v-25h25zM525 400v-25h25zM425 250v-25h25zM425 300v-25h25zM450 225v-25h25zM425 225v-25h25zM475 250v-25h25zM450 250v50l50-50zM500 225v-25h25zM500 250v-25h25zM500 300v-25h25zM475 300v-25h25zM500 350v-25h25zM525 275v-25h25zM500 350v50l50-50zM525 300v50l50-50zM550 200v50l50-50zM575 275v-25h25zM575 300v-25h25zM550 350v50l50-50zM600 225v-25h25zM575 300v50l50-50zM600 350v-25h25zM550 275v-25h25zM600 375v25h25l25-25zM600 225v75l75-75zM675 300v-25h25zM625 300v75l75-75zM425 325v75l75-75zM675 350v-25h25z" class="st1"/><path d="M650 350v50l50-50zM675 200v50l50-50zM700 275v-25h25zM725 225v-25h25zM725 275v-25h25zM700 300v-25h25zM725 325v-25h25zM700 325v50l50-50z" class="st1"/><path d="M675 375v25h50l25-25zM750 225v-25h25zM750 250v-25h25zM750 300v-25h25zM750 325v-25h25zM750 375v-25h25zM775 250v50l25-25v-25zM775 350v-25h25zM750 375v25h25l25-25zM800 225v-25h25zM800 300v-25h25zM800 275v-25h25zM800 375v-25h25zM800 400v-25h25zM925 400v-25h25zM825 250v-25h25zM825 300v-25h25zM850 225v-25h25zM825 225v-25h25zM875 250v-25h25zM850 250v50l50-50zM900 225v-25h25zM900 250v-25h25zM900 300v-25h25zM875 300v-25h25zM900 350v-25h25zM925 275v-25h25zM900 350v50l50-50zM925 300v50l50-50zM950 200v50l50-50zM975 275v-25h25zM975 300v-25h25zM950 350v50l50-50zM1000 225v-25h25zM975 300v50l50-50zM1000 350v-25h25zM950 275v-25h25zM1000 375v25h25l25-25zM1000 225v75l75-75zM1075 300v-25h25zM1025 300v75l75-75zM825 325v75l75-75zM1075 350v-25h25z" class="st1"/><path d="M1050 350v50l50-50zM1075 200v50l50-50zM1100 275v-25h25zM1125 225v-25h25zM1125 275v-25h25zM1100 300v-25h25zM1125 325v-25h25zM1100 325v50l50-50z" class="st1"/><path d="M1075 375v25h50l25-25zM1150 225v-25h25zM1150 250v-25h25zM1150 300v-25h25zM1150 325v-25h25zM1150 375v-25h25zM1175 250v50l25-25v-25zM1175 350v-25h25zM1150 375v25h25l25-25zM0 425v-25h25zM0 500v-25h25zM0 475v-25h25zM0 575v-25h25zM0 600v-25h25zM125 600v-25h25zM25 450v-25h25zM25 500v-25h25zM50 425v-25h25zM25 425v-25h25zM75 450v-25h25zM50 450v50l50-50zM100 425v-25h25zM100 450v-25h25zM100 500v-25h25zM75 500v-25h25zM100 550v-25h25zM125 475v-25h25zM100 550v50l50-50zM125 500v50l50-50zM150 400v50l50-50zM175 475v-25h25zM175 500v-25h25zM150 550v50l50-50zM200 425v-25h25zM175 500v50l50-50zM200 550v-25h25zM150 475v-25h25zM200 575v25h25l25-25zM200 425v75l75-75zM275 500v-25h25zM225 500v75l75-75zM25 525v75l75-75zM275 550v-25h25z" class="st1"/><path d="M250 550v50l50-50zM275 400v50l50-50zM300 475v-25h25zM325 425v-25h25zM325 475v-25h25zM300 500v-25h25zM325 525v-25h25zM300 525v50l50-50z" class="st1"/><path d="M275 575v25h50l25-25zM350 425v-25h25zM350 450v-25h25zM350 500v-25h25zM350 525v-25h25zM350 575v-25h25zM375 450v50l25-25v-25zM375 550v-25h25zM350 575v25h25l25-25zM400 425v-25h25zM400 500v-25h25zM400 475v-25h25zM400 575v-25h25zM400 600v-25h25zM525 600v-25h25zM425 450v-25h25zM425 500v-25h25zM450 425v-25h25zM425 425v-25h25zM475 450v-25h25zM450 450v50l50-50zM500 425v-25h25zM500 450v-25h25zM500 500v-25h25zM475 500v-25h25zM500 550v-25h25zM525 475v-25h25zM500 550v50l50-50zM525 500v50l50-50zM550 400v50l50-50zM575 475v-25h25zM575 500v-25h25zM550 550v50l50-50zM600 425v-25h25zM575 500v50l50-50zM600 550v-25h25zM550 475v-25h25zM600 575v25h25l25-25zM600 425v75l75-75zM675 500v-25h25zM625 500v75l75-75zM425 525v75l75-75zM675 550v-25h25z" class="st1"/><path d="M650 550v50l50-50zM675 400v50l50-50zM700 475v-25h25zM725 425v-25h25zM725 475v-25h25zM700 500v-25h25zM725 525v-25h25zM700 525v50l50-50z" class="st1"/><path d="M675 575v25h50l25-25zM750 425v-25h25zM750 450v-25h25zM750 500v-25h25zM750 525v-25h25zM750 575v-25h25zM775 450v50l25-25v-25zM775 550v-25h25zM750 575v25h25l25-25zM800 425v-25h25zM800 500v-25h25zM800 475v-25h25zM800 575v-25h25zM800 600v-25h25zM925 600v-25h25zM825 450v-25h25zM825 500v-25h25zM850 425v-25h25zM825 425v-25h25zM875 450v-25h25zM850 450v50l50-50zM900 425v-25h25zM900 450v-25h25zM900 500v-25h25zM875 500v-25h25zM900 550v-25h25zM925 475v-25h25zM900 550v50l50-50zM925 500v50l50-50zM950 400v50l50-50zM975 475v-25h25zM975 500v-25h25zM950 550v50l50-50zM1000 425v-25h25zM975 500v50l50-50zM1000 550v-25h25zM950 475v-25h25zM1000 575v25h25l25-25zM1000 425v75l75-75zM1075 500v-25h25zM1025 500v75l75-75zM825 525v75l75-75zM1075 550v-25h25z" class="st1"/><path d="M1050 550v50l50-50zM1075 400v50l50-50zM1100 475v-25h25zM1125 425v-25h25zM1125 475v-25h25zM1100 500v-25h25zM1125 525v-25h25zM1100 525v50l50-50z" class="st1"/><path d="M1075 575v25h50l25-25zM1150 425v-25h25zM1150 450v-25h25zM1150 500v-25h25zM1150 525v-25h25zM1150 575v-25h25zM1175 450v50l25-25v-25zM1175 550v-25h25zM1150 575v25h25l25-25zM0 625v-25h25zM0 700v-25h25zM0 675v-25h25zM0 775v-25h25zM0 800v-25h25zM125 800v-25h25zM25 650v-25h25zM25 700v-25h25zM50 625v-25h25zM25 625v-25h25zM75 650v-25h25zM50 650v50l50-50zM100 625v-25h25zM100 650v-25h25zM100 700v-25h25zM75 700v-25h25zM100 750v-25h25zM125 675v-25h25zM100 750v50l50-50zM125 700v50l50-50zM150 600v50l50-50zM175 675v-25h25zM175 700v-25h25zM150 750v50l50-50zM200 625v-25h25zM175 700v50l50-50zM200 750v-25h25zM150 675v-25h25zM200 775v25h25l25-25zM200 625v75l75-75zM275 700v-25h25zM225 700v75l75-75zM25 725v75l75-75zM275 750v-25h25z" class="st1"/><path d="M250 750v50l50-50zM275 600v50l50-50zM300 675v-25h25zM325 625v-25h25zM325 675v-25h25zM300 700v-25h25zM325 725v-25h25zM300 725v50l50-50z" class="st1"/><path d="M275 775v25h50l25-25zM350 625v-25h25zM350 650v-25h25zM350 700v-25h25zM350 725v-25h25zM350 775v-25h25zM375 650v50l25-25v-25zM375 750v-25h25zM350 775v25h25l25-25zM400 625v-25h25zM400 700v-25h25zM400 675v-25h25zM400 775v-25h25zM400 800v-25h25zM525 800v-25h25zM425 650v-25h25zM425 700v-25h25zM450 625v-25h25zM425 625v-25h25zM475 650v-25h25zM450 650v50l50-50zM500 625v-25h25zM500 650v-25h25zM500 700v-25h25zM475 700v-25h25zM500 750v-25h25zM525 675v-25h25zM500 750v50l50-50zM525 700v50l50-50zM550 600v50l50-50zM575 675v-25h25zM575 700v-25h25zM550 750v50l50-50zM600 625v-25h25zM575 700v50l50-50zM600 750v-25h25zM550 675v-25h25zM600 775v25h25l25-25zM600 625v75l75-75zM675 700v-25h25zM625 700v75l75-75zM425 725v75l75-75zM675 750v-25h25z" class="st1"/><path d="M650 750v50l50-50zM675 600v50l50-50zM700 675v-25h25zM725 625v-25h25zM725 675v-25h25zM700 700v-25h25zM725 725v-25h25zM700 725v50l50-50z" class="st1"/><path d="M675 775v25h50l25-25zM750 625v-25h25zM750 650v-25h25zM750 700v-25h25zM750 725v-25h25zM750 775v-25h25zM775 650v50l25-25v-25zM775 750v-25h25zM750 775v25h25l25-25zM800 625v-25h25zM800 700v-25h25zM800 675v-25h25zM800 775v-25h25zM800 800v-25h25zM925 800v-25h25zM825 650v-25h25zM825 700v-25h25zM850 625v-25h25zM825 625v-25h25zM875 650v-25h25zM850 650v50l50-50zM900 625v-25h25zM900 650v-25h25zM900 700v-25h25zM875 700v-25h25zM900 750v-25h25zM925 675v-25h25zM900 750v50l50-50zM925 700v50l50-50zM950 600v50l50-50zM975 675v-25h25zM975 700v-25h25zM950 750v50l50-50zM1000 625v-25h25zM975 700v50l50-50zM1000 750v-25h25zM950 675v-25h25zM1000 775v25h25l25-25zM1000 625v75l75-75zM1075 700v-25h25zM1025 700v75l75-75zM825 725v75l75-75zM1075 750v-25h25z" class="st1"/><path d="M1050 750v50l50-50zM1075 600v50l50-50zM1100 675v-25h25zM1125 625v-25h25zM1125 675v-25h25zM1100 700v-25h25zM1125 725v-25h25zM1100 725v50l50-50z" class="st1"/><path d="M1075 775v25h50l25-25zM1150 625v-25h25zM1150 650v-25h25zM1150 700v-25h25zM1150 725v-25h25zM1150 775v-25h25zM1175 650v50l25-25v-25zM1175 750v-25h25zM1150 775v25h25l25-25z" class="st1"/></svg>
